<svg xmlns="http://www.w3.org/2000/svg" xmlns:xlink="http://www.w3.org/1999/xlink" width="2307.51" height="2770.984" viewBox="0 0 2307.51 2770.984">
  <defs>
    <linearGradient id="linear-gradient" x1="1.709" y1="1.228" x2="-1.126" y2="1.282" gradientUnits="objectBoundingBox">
      <stop offset="0" stop-color="#1c6ee1"/>
      <stop offset="1" stop-color="#0e6173"/>
    </linearGradient>
    <filter id="Path_29" x="1088.672" y="1625.833" width="1218.838" height="803.571" filterUnits="userSpaceOnUse">
      <feOffset dx="2" dy="5" input="SourceAlpha"/>
      <feGaussianBlur stdDeviation="3" result="blur"/>
      <feFlood flood-opacity="0.161"/>
      <feComposite operator="in" in2="blur"/>
      <feComposite in="SourceGraphic"/>
    </filter>
    <filter id="Path_31" x="1086.123" y="344.685" width="1218.782" height="803.581" filterUnits="userSpaceOnUse">
      <feOffset dy="3" input="SourceAlpha"/>
      <feGaussianBlur stdDeviation="3" result="blur-2"/>
      <feFlood flood-opacity="0.161"/>
      <feComposite operator="in" in2="blur-2"/>
      <feComposite in="SourceGraphic"/>
    </filter>
    <linearGradient id="linear-gradient-3" x1="0.411" y1="0.788" x2="-0.31" y2="-0.139" gradientUnits="objectBoundingBox">
      <stop offset="0" stop-color="#1cb5e0"/>
      <stop offset="1" stop-color="#000046"/>
    </linearGradient>
    <filter id="Path_32" x="762.581" y="0" width="1542.32" height="1147.713" filterUnits="userSpaceOnUse">
      <feOffset dy="3" input="SourceAlpha"/>
      <feGaussianBlur stdDeviation="3" result="blur-3"/>
      <feFlood flood-opacity="0.161"/>
      <feComposite operator="in" in2="blur-3"/>
      <feComposite in="SourceGraphic"/>
    </filter>
    <filter id="Path_32-2" x="762.581" y="0" width="1542.32" height="1147.713" filterUnits="userSpaceOnUse">
      <feOffset dy="3" input="SourceAlpha"/>
      <feGaussianBlur stdDeviation="3" result="blur-4"/>
      <feFlood flood-opacity="0.161" result="color"/>
      <feComposite operator="out" in="SourceGraphic" in2="blur-4"/>
      <feComposite operator="in" in="color"/>
      <feComposite operator="in" in2="SourceGraphic"/>
    </filter>
    <linearGradient id="linear-gradient-4" x1="0.828" y1="0.374" x2="-0.508" y2="1.186" xlink:href="#linear-gradient-3"/>
    <filter id="Path_28" x="765.911" y="1623.286" width="1539.599" height="1147.699" filterUnits="userSpaceOnUse">
      <feOffset dy="3" input="SourceAlpha"/>
      <feGaussianBlur stdDeviation="3" result="blur-5"/>
      <feFlood flood-opacity="0.161"/>
      <feComposite operator="in" in2="blur-5"/>
      <feComposite in="SourceGraphic"/>
    </filter>
    <filter id="Path_28-2" x="765.911" y="1623.286" width="1539.599" height="1147.699" filterUnits="userSpaceOnUse">
      <feOffset dy="3" input="SourceAlpha"/>
      <feGaussianBlur stdDeviation="3" result="blur-6"/>
      <feFlood flood-opacity="0.161" result="color-2"/>
      <feComposite operator="out" in="SourceGraphic" in2="blur-6"/>
      <feComposite operator="in" in="color-2"/>
      <feComposite operator="in" in2="SourceGraphic"/>
    </filter>
    <linearGradient id="linear-gradient-5" x1="-0.148" y1="0.5" x2="1.086" y2="0.509" gradientUnits="objectBoundingBox">
      <stop offset="0" stop-color="aqua"/>
      <stop offset="1" stop-color="#3a7bd5"/>
    </linearGradient>
    <filter id="Path_30" x="0" y="8.882" width="2304.145" height="2754.331" filterUnits="userSpaceOnUse">
      <feOffset dy="3" input="SourceAlpha"/>
      <feGaussianBlur stdDeviation="3" result="blur-7"/>
      <feFlood flood-opacity="0.161"/>
      <feComposite operator="in" in2="blur-7"/>
      <feComposite in="SourceGraphic"/>
    </filter>
  </defs>
  <g id="Group_61" data-name="Group 61" transform="translate(9 6)">
    <g id="ARC" transform="translate(1086.672 1623.833)">
      <g transform="matrix(1, 0, 0, 1, -1095.67, -1629.83)" filter="url(#Path_29)">
        <path id="Path_29-2" data-name="Path 29" d="M767.17,883.962H419.059a336.568,336.568,0,0,1-293.067-171.1C34.62,551.007,91.754,345.709,253.6,254.337c-84.038,141.108-37.755,323.617,103.353,407.655a297.316,297.316,0,0,0,152.151,41.87H767.17A679.877,679.877,0,0,1,1283.3,1039.908,932.108,932.108,0,0,0,767.17,883.962Z" transform="translate(1013.22 1375.5)" fill="url(#linear-gradient)"/>
      </g>
    </g>
    <g id="ARC-2" data-name="ARC" transform="translate(1086.128 344.69)">
      <g transform="matrix(1, 0, 0, 1, -1095.13, -350.69)" filter="url(#Path_31)">
        <path id="Path_31-2" data-name="Path 31" d="M840.693,489.546H492.6c-185.877,0-336.557,150.681-336.557,336.558a336.544,336.544,0,0,0,171.1,293.068A297.338,297.338,0,0,1,285.257,967.02c0-164.238,133.156-297.373,297.4-297.373H840.693A679.894,679.894,0,0,0,1356.817,333.6,932.059,932.059,0,0,1,840.693,489.546Z" transform="translate(939.08 17.09)" stroke="#000" stroke-linecap="round" stroke-linejoin="round" stroke-width="0.01" fill="url(#linear-gradient)"/>
      </g>
    </g>
    <g id="ARC-3" data-name="ARC" transform="translate(762.581 0)">
      <g data-type="innerShadowGroup">
        <g transform="matrix(1, 0, 0, 1, -771.58, -6)" filter="url(#Path_32)">
          <path id="Path_32-3" data-name="Path 32" d="M849.751,878.962h348.091a932.112,932.112,0,0,0,516.125-155.946A1376.4,1376.4,0,0,0,648.951,387.589C341,447.771,140.118,746.211,200.3,1054.159a568.13,568.13,0,0,0,483.976,454.427,336.591,336.591,0,0,1-171.082-293.067C513.194,1029.641,663.874,878.962,849.751,878.962Z" transform="translate(581.93 -372.87)" fill="url(#linear-gradient-3)"/>
        </g>
        <g transform="matrix(1, 0, 0, 1, -771.58, -6)" filter="url(#Path_32-2)">
          <path id="Path_32-4" data-name="Path 32" d="M849.751,878.962h348.091a932.112,932.112,0,0,0,516.125-155.946A1376.4,1376.4,0,0,0,648.951,387.589C341,447.771,140.118,746.211,200.3,1054.159a568.13,568.13,0,0,0,483.976,454.427,336.591,336.591,0,0,1-171.082-293.067C513.194,1029.641,663.874,878.962,849.751,878.962Z" transform="translate(581.93 -372.87)" fill="#fff"/>
        </g>
      </g>
    </g>
    <g id="ARC-4" data-name="ARC" transform="translate(765.911 1623.286)">
      <g data-type="innerShadowGroup">
        <g transform="matrix(1, 0, 0, 1, -774.91, -1629.29)" filter="url(#Path_28)">
          <path id="Path_28-3" data-name="Path 28" d="M1040.691,884.949H692.6A336.542,336.542,0,0,1,399.533,713.867c-91.393-161.873-34.259-367.15,127.613-458.543-311,42.19-528.894,328.5-486.7,639.474a568.217,568.217,0,0,0,460.632,482.526,1376.353,1376.353,0,0,0,1055.741-336.429A932.061,932.061,0,0,0,1040.691,884.949Z" transform="translate(739.7 1373.96)" fill="url(#linear-gradient-4)"/>
        </g>
        <g transform="matrix(1, 0, 0, 1, -774.91, -1629.29)" filter="url(#Path_28-2)">
          <path id="Path_28-4" data-name="Path 28" d="M1040.691,884.949H692.6A336.542,336.542,0,0,1,399.533,713.867c-91.393-161.873-34.259-367.15,127.613-458.543-311,42.19-528.894,328.5-486.7,639.474a568.217,568.217,0,0,0,460.632,482.526,1376.353,1376.353,0,0,0,1055.741-336.429A932.061,932.061,0,0,0,1040.691,884.949Z" transform="translate(739.7 1373.96)" fill="#fff"/>
        </g>
      </g>
    </g>
    <g id="ARC-5" data-name="ARC" transform="translate(0 8.882)">
      <g transform="matrix(1, 0, 0, 1, -9, -14.88)" filter="url(#Path_30)">
        <path id="Path_30-2" data-name="Path 30" d="M1700.313,1367.229a3058.866,3058.866,0,0,1-414.455,124.416c-242.244-31.658-436.392-214.855-483.251-454.626C742.446,729.05,943.31,430.633,1251.279,370.45,495.938,455.831-47.175,1137.366,38.206,1892.686c72.483,641.2,580.677,1145.962,1222.347,1214.1a568.262,568.262,0,0,1-460.632-482.546c-42.19-310.975,174.962-597.065,485.937-639.255a3062.013,3062.013,0,0,1,414.455,124.394,837.512,837.512,0,0,1,615.2-371.072A837.508,837.508,0,0,1,1700.313,1367.229Z" transform="translate(-20.37 -355.57)" fill="url(#linear-gradient-5)"/>
      </g>
    </g>
  </g>
</svg>
