<svg width="68" height="135" viewBox="0 0 68 135" fill="none" xmlns="http://www.w3.org/2000/svg">
<path d="M46.1721 112.578L55.6831 130.417L48.7331 134.127L37.9321 113.88V128.829H30.0621V113.88L19.2651 134.127L12.3101 130.417L21.8261 112.578H14.4331V104.709H53.5601V112.578H46.1721ZM67.4641 9.73205V102.739H0.537109V9.73705L67.4641 9.73205ZM8.41611 17.606V91.139C10.3371 84.835 13.8911 76.748 19.9481 74.799C19.9481 74.799 12.2591 96.382 44.8201 77.352C44.8201 77.352 56.4921 70.8051 59.5911 80.896V17.606H8.41611ZM24.4621 57.221C12.0511 40.597 20.3671 32.203 26.6751 30.649C45.3231 26.049 40.0231 54.531 40.6781 63.814C41.9371 81.1691 53.8551 73.901 57.1881 70.258C61.6041 65.4341 53.7511 54.945 53.1111 49.544C49.0911 15.147 27.5001 23.557 27.5001 23.557C3.34411 29.049 12.4121 61.708 20.9171 69.657C30.5651 78.663 26.7331 60.263 24.4621 57.221ZM48.4371 0.873047H19.5651V8.74705H48.4371V0.873047Z" fill="url(#paint0_linear_88_22)"/>
<defs>
<linearGradient id="paint0_linear_88_22" x1="34.0006" y1="134.127" x2="34.0005" y2="0.873039" gradientUnits="userSpaceOnUse">
<stop stop-color="#E64E4E"/>
<stop offset="0.0001" stop-color="#E64E51"/>
<stop offset="1" stop-color="#F47D60"/>
</linearGradient>
</defs>
</svg>
